<svg xmlns="http://www.w3.org/2000/svg" id="b" viewBox="0 0 151.48 33.27"><g id="c"><path d="M121.82,10.14c-.86,0-2.21.5-3.2,1.66-.26.31-.47.61-.62.91,2.12-.76,4.05-1.67,4.53-2.34-.04-.08-.12-.13-.28-.18-.12-.03-.26-.05-.42-.05M80.74,9.86c-.3,0-.79.07-1.46.33-1.12.43-2.57,1.82-3.2,3.08.11-.04.21-.07.32-.11,2.02-.7,4.79-1.66,4.72-2.87-.02-.29-.08-.38-.08-.38-.04-.03-.14-.05-.31-.05M66.98,20.35c-1.22.52-2.48,1.03-3.82,1.5-2.28.8-6.21,2.57-6.92,5.34-.28,1.1-.05,2.09.61,2.65.65.55,1.59.61,2.58.18,2.92-1.3,5.32-4.19,7.13-8.62l.02-.05c.14-.35.28-.69.4-1.01M58.18,33.27c-1.19,0-2.31-.39-3.22-1.16-1.55-1.31-2.14-3.42-1.57-5.64,1-3.9,5.33-6.17,8.8-7.4,2.07-.73,3.93-1.55,5.85-2.41.14-.98,0-1.4-.09-1.55h0c-.47,0-1.5.31-2.02.46-.49.15-.92.27-1.28.33-2.27.36-4.36-.19-5.74-1.49-1.23-1.16-1.81-2.81-1.63-4.66.34-3.58,3.42-7.08,6.15-8.56,3.07-1.67,6.24-1.58,8.26.23,1.66,1.48,2.12,3.82,1.2,6.1-.3.76-1.16,1.12-1.92.82-.76-.3-1.12-1.16-.82-1.92.45-1.13.3-2.14-.43-2.79-.8-.71-2.56-1.1-4.89.17-2.04,1.1-4.39,3.81-4.62,6.25-.09.93.16,1.7.72,2.23.71.67,1.9.94,3.26.72.17-.03.56-.14.9-.24,1.56-.46,3.34-.99,4.56-.09.86.64,1.27,1.57,1.37,2.67.6-.26,1.2-.53,1.82-.79,0-.03,0-.07,0-.1-.03-3.03,3.12-6.11,5.4-6.99,1.27-.49,3.07-.88,4.44,0,.6.39,1.33,1.17,1.42,2.68.19,3.44-3.63,4.76-6.7,5.83-.1.04-.21.07-.31.11.61.18,1.36.18,2.07-.02,3.11-.89,6.47-3.34,8.69-6.24.38-.74.82-1.39,1.28-1.85.52-.53,1.36-.59,1.95-.14.59.45.75,1.28.37,1.92-.33.56-.7,1.11-1.1,1.65-.68,1.47-1.07,3.41-.65,4.06.08.13.56.12,1.28-.14,1.66-.6,3.16-2.65,4.37-4.3l.29-.39c.15-.2.32-.48.51-.77.73-1.14,1.63-2.56,3.07-3.04.74-.25,1.54.12,1.84.85.46,1.13.28,2.55.09,4.05-.25,1.94-.38,3.45.34,3.71.85.31,3.04-2.01,4.09-3.12,1.04-1.1,1.94-2.05,2.82-2.54.37-.21.82-.25,1.22-.1.4.14.72.45.88.85.24.61.36,1.25.48,1.87.38,1.94.54,1.93,1.43,1.84.59-.05,1.39-.21,2.28-.44.14-1.39.78-2.76,1.71-3.85,1.75-2.06,4.55-3.13,6.66-2.55,1.33.37,2.23,1.35,2.45,2.7.08.49.04,1.25-.59,2.08-1.11,1.44-3.99,2.74-6.74,3.65.05.06.11.12.17.17,1.36,1.22,4.39.87,7.83-2.78.3-.32.99-1.39,1.59-2.33,2.13-3.31,3.19-4.97,4.78-4.5.41.12,1.07.48,1.23,1.53.62-.19,1.59-.67,2.38-1.18.57-.37,1.33-.3,1.82.17.5.47.6,1.22.26,1.81-.26.44-.75,1.02-1.6,2-.88,1.02-3.51,4.05-3.66,5.15.35.38.67.58.96.59,0,0,.01,0,.02,0,.89,0,2.19-1.43,2.97-2.29.26-.28.5-.54.72-.77.68-.68,4.02-4.76,6.1-7.33.26-.33.65-.52,1.07-.55.42-.02.83.14,1.12.43,1.1,1.11,6.54,6.84,5.42,10.6-.75,2.5-2.95,4.07-5.36,3.81-1.94-.21-4-1.72-4.22-4.64-.06-.81.54-1.52,1.36-1.59.82-.07,1.52.54,1.59,1.36.09,1.11.68,1.84,1.6,1.93.77.08,1.8-.32,2.22-1.72.35-1.16-1.42-4.03-3.56-6.47-1.61,1.98-4.48,5.47-5.22,6.23-.19.19-.4.43-.63.67-1.27,1.4-3.02,3.31-5.25,3.26-1.22-.03-2.32-.63-3.28-1.8-1.45-1.75.05-4.25,2.05-6.73-.2-.05-.4-.12-.58-.22-.15-.08-.29-.18-.42-.29-.49.7-1.02,1.54-1.39,2.11-.89,1.39-1.46,2.26-1.93,2.76-4.81,5.11-9.47,5.17-11.94,2.95-.51-.46-.9-.97-1.18-1.51-1.08.27-1.98.44-2.52.49-3.13.29-4.03-1.77-4.42-3.38-.18.19-.36.38-.54.56-2.04,2.15-4.57,4.83-7.24,3.87-2.62-.95-2.61-3.73-2.37-5.95-.03.04-.06.08-.09.12l-.28.39c-1.44,1.97-3.24,4.43-5.75,5.33-2.9,1.04-4.23-.21-4.77-1.05-.34-.54-.52-1.15-.59-1.78-2.06,1.68-4.39,2.98-6.66,3.63-1.91.55-3.95.25-5.33-.78-.31-.23-.58-.49-.81-.78-1.1.46-2.16.94-3.2,1.41-.33,1.25-.81,2.54-1.3,3.74l-.02.05c-2.1,5.15-5.02,8.58-8.66,10.2-.82.36-1.65.54-2.45.54" style="fill:#fff;"></path><path d="M93.04,5.47h-.19c-1.02,0-1.84-.83-1.84-1.84s.83-1.84,1.84-1.84h.19c1.02,0,1.84.83,1.84,1.84s-.83,1.84-1.84,1.84" style="fill:#fff;"></path><path d="M9.16,9.63c-.39-.41-.86-.73-1.4-.96-.54-.23-1.16-.34-1.86-.34s-1.37.13-1.95.4-1.07.62-1.47,1.07c-.4.45-.71.97-.93,1.57-.22.59-.33,1.22-.33,1.88s.11,1.28.33,1.88c.22.59.53,1.11.93,1.56.4.45.89.8,1.47,1.07.58.26,1.23.4,1.95.4.64,0,1.22-.07,1.75-.21s.96-.31,1.29-.53v-3.42h-2.63v-1.02h3.77v5.09c-.62.37-1.28.65-1.99.83-.71.18-1.45.27-2.21.27-.85,0-1.64-.15-2.36-.45-.72-.3-1.34-.71-1.86-1.23-.52-.53-.93-1.15-1.22-1.87-.29-.72-.44-1.51-.44-2.37s.15-1.65.45-2.37c.3-.72.71-1.35,1.23-1.87.53-.53,1.15-.94,1.86-1.23.72-.3,1.49-.45,2.33-.45.9,0,1.69.13,2.36.4.67.27,1.24.64,1.72,1.12l-.8.8Z" style="fill:#fff;"></path><path d="M14.16,18.87h-1.15V7.59h3.31c.55,0,1.06.05,1.54.16.47.11.88.28,1.23.52.34.24.61.55.8.93.19.38.29.85.29,1.4,0,.41-.07.79-.22,1.13-.15.34-.35.63-.61.88s-.56.45-.91.6c-.35.15-.73.24-1.15.29l3.3,5.37h-1.4l-3.12-5.27h-1.91v5.27ZM14.16,12.61h1.99c.92,0,1.64-.17,2.13-.5s.75-.84.75-1.51c0-.37-.07-.68-.21-.94-.14-.25-.33-.46-.57-.62-.24-.16-.54-.28-.89-.35-.35-.07-.74-.11-1.16-.11h-2.04v4.03Z" style="fill:#fff;"></path><path d="M26.71,19.16c-.85,0-1.54-.15-2.09-.44s-.97-.66-1.29-1.11c-.32-.45-.54-.93-.66-1.46s-.18-1.02-.18-1.49v-7.07h1.15v6.94c0,.46.05.9.16,1.33.11.43.28.81.52,1.15.24.33.55.61.95.81.39.21.88.31,1.45.31s1.06-.1,1.45-.31c.39-.21.71-.48.95-.81.24-.33.41-.72.52-1.15.11-.43.16-.87.16-1.33v-6.94h1.15v7.07c0,.47-.06.96-.18,1.49s-.34,1.01-.66,1.46c-.32.45-.75.81-1.3,1.11s-1.24.44-2.08.44Z" style="fill:#fff;"></path><path d="M33.86,7.59h3.19c.57,0,1.09.06,1.56.18s.87.31,1.2.56.59.56.77.94c.18.38.27.82.27,1.33s-.09.95-.28,1.33c-.19.38-.45.69-.78.94s-.74.44-1.21.57c-.47.13-1,.19-1.57.19h-2.01v5.24h-1.15V7.59ZM35.01,12.66h1.94c.9,0,1.59-.18,2.05-.53.47-.35.7-.86.7-1.53s-.24-1.21-.72-1.54c-.48-.32-1.16-.49-2.03-.49h-1.94v4.08Z" style="fill:#fff;"></path><path d="M54.25,13.23c0,.86-.15,1.65-.45,2.37-.3.72-.71,1.35-1.23,1.87-.53.53-1.15.94-1.86,1.23s-1.49.45-2.33.45-1.62-.15-2.33-.45-1.34-.71-1.86-1.23c-.53-.53-.94-1.15-1.23-1.87-.3-.72-.45-1.51-.45-2.37s.15-1.65.45-2.37c.3-.72.71-1.35,1.23-1.87.53-.53,1.15-.94,1.86-1.23.72-.3,1.49-.45,2.33-.45s1.62.15,2.33.45c.72.3,1.34.71,1.86,1.23.53.53.94,1.15,1.23,1.87.3.72.45,1.51.45,2.37ZM53.04,13.24c0-.66-.11-1.28-.32-1.88-.21-.59-.52-1.12-.92-1.57-.4-.45-.9-.81-1.47-1.07s-1.23-.4-1.95-.4-1.37.13-1.95.4c-.58.27-1.07.62-1.47,1.07-.4.45-.71.97-.92,1.57s-.32,1.22-.32,1.88.11,1.28.32,1.88.52,1.11.92,1.56c.4.45.89.8,1.47,1.07.58.26,1.23.4,1.95.4s1.37-.13,1.95-.4c.58-.27,1.07-.62,1.47-1.07.4-.45.71-.96.92-1.56.21-.59.32-1.22.32-1.88Z" style="fill:#fff;"></path></g></svg>